<?xml version="1.0" encoding="UTF-8"?>
<svg version="1.1" xmlns="http://www.w3.org/2000/svg" width="32" height="32">
<path d="M0 0 C0 0.66 0 1.32 0 2 C3.465 1.505 3.465 1.505 7 1 C7 1.99 7 2.98 7 4 C9.475 4.495 9.475 4.495 12 5 C12.12375 5.61875 12.2475 6.2375 12.375 6.875 C12.87197356 9.19120832 12.87197356 9.19120832 15 11 C14.66666667 12.33333333 14.33333333 13.66666667 14 15 C14.27050453 17.00946222 14.59367909 19.01354224 15 21 C14.01 21 13.02 21 12 21 C12 22.98 12 24.96 12 27 C11.01 27 10.02 27 9 27 C8.76539062 27.64453125 8.53078125 28.2890625 8.2890625 28.953125 C7 31 7 31 4.8359375 31.609375 C4.02382813 31.65578125 3.21171875 31.7021875 2.375 31.75 C1.55773437 31.80671875 0.74046875 31.8634375 -0.1015625 31.921875 C-0.72804688 31.94765625 -1.35453125 31.9734375 -2 32 C-2 31.34 -2 30.68 -2 30 C-4.31 30.33 -6.62 30.66 -9 31 C-9 30.01 -9 29.02 -9 28 C-10.65 27.67 -12.3 27.34 -14 27 C-14.12375 26.38125 -14.2475 25.7625 -14.375 25.125 C-14.87197356 22.80879168 -14.87197356 22.80879168 -17 21 C-16.5 19 -16.5 19 -16 17 C-16.27050453 14.99053778 -16.59367909 12.98645776 -17 11 C-16.01 11 -15.02 11 -14 11 C-14 9.02 -14 7.04 -14 5 C-13.01 5 -12.02 5 -11 5 C-10.79375 4.360625 -10.5875 3.72125 -10.375 3.0625 C-9 1 -9 1 -6.0625 0.25 C-3 0 -3 0 0 0 Z M-3 12 C1 13 1 13 1 13 Z M-5 14 C-4 18 -4 18 -4 18 Z M2 14 C3 18 3 18 3 18 Z M-3 19 C1 20 1 20 1 20 Z " fill="#005FFF" transform="translate(17,0)"/>
</svg>
